<svg version="1.1" id="Warstwa_1" xmlns="http://www.w3.org/2000/svg" xmlns:xlink="http://www.w3.org/1999/xlink" x="0px" y="0px" viewBox="0 0 43 38" enable-background="new 0 0 43 38" xml:space="preserve">
    <polygon class="bee" fill="#FFFFFF" stroke="#000000" stroke-width="0.25" stroke-miterlimit="10" points="23.4,16.2 13.9,16.2 14.5,15.124.2,15.1 "/>
    <polygon class="bee" fill="#FFFFFF" stroke="#000000" stroke-width="0.25" stroke-miterlimit="10" points="18.9,21.4 20.2,21.4 23.4,16.222.2,16.2 "/>
    <polygon class="bee" fill="#FFFFFF" stroke="#000000" stroke-width="0.25" stroke-miterlimit="10" points="8.1,21.9 9.4,21.9 18,7.2 16.6,7.2"/>
    <polyline class="bee" fill="#FFFFFF" stroke="#000000" stroke-width="0.25" stroke-miterlimit="10" points="8.7,22 19.9,22 19.2,23 7.4,238.1,21.9 8.7,22 "/>
    <polygon class="gee" fill="#FFFFFF" stroke="#000000" stroke-width="0.25" stroke-miterlimit="10" points="22.5,21.4 21.2,21.4 24.3,16.225.7,16.2 "/>
    <polygon class="gee" fill="#FFFFFF" stroke="#000000" stroke-width="0.25" stroke-miterlimit="10" points="30.2,23.1 20.3,23 20.9,21.930.9,21.9 "/>
    <polygon class="gee" fill="#FFFFFF" stroke="#000000" stroke-width="0.25" stroke-miterlimit="10" points="35.2,16.2 24.3,16.2 25,15.135.8,15.2 "/>
    <polygon class="gee" fill="#FFFFFF" stroke="#000000" stroke-width="0.25" stroke-miterlimit="10" points="35.8,15.1 36.9,15.1 29.4,28.728.1,28.7 "/>
    <polygon class="gee" fill="#FFFFFF" stroke="#000000" stroke-width="0.25" stroke-miterlimit="10" points="28.8,29.7 17,29.7 17.6,28.729.4,28.7 "/>
</svg>